<?xml version="1.0" standalone="no"?>
<!DOCTYPE svg PUBLIC "-//W3C//DTD SVG 20010904//EN"
 "http://www.w3.org/TR/2001/REC-SVG-20010904/DTD/svg10.dtd">
<svg version="1.0" xmlns="http://www.w3.org/2000/svg"
 width="512.000000pt" height="512.000000pt" viewBox="0 0 512.000000 512.000000"
 preserveAspectRatio="xMidYMid meet">
<metadata>
Created by potrace 1.14, written by Peter Selinger 2001-2017
</metadata>
<g transform="translate(0.000000,512.000000) scale(0.100000,-0.100000)"
fill="#000000" stroke="none">
<path d="M0 2560 l0 -2560 1181 0 1180 0 -66 56 c-130 111 -277 297 -370 468
l-48 90 17 170 c12 119 15 203 10 276 l-6 105 -60 64 c-217 232 -405 525 -488
762 l-34 97 -49 0 c-69 0 -90 20 -168 153 -36 62 -82 132 -101 154 -57 66
-126 169 -155 232 -23 49 -27 75 -30 168 -3 83 -1 106 7 92 6 -9 22 -29 35
-43 23 -25 45 -80 45 -115 0 -8 14 -43 30 -77 17 -34 30 -64 30 -67 0 -18 84
-141 129 -188 47 -50 171 -147 187 -147 2 0 -5 18 -17 41 -16 33 -18 47 -11
68 23 59 36 141 36 228 1 51 3 93 5 93 2 0 23 -17 46 -39 23 -21 52 -44 65
-51 23 -12 23 -12 16 26 -42 243 -45 398 -11 568 21 103 24 106 159 126 91 14
152 9 356 -26 402 -71 480 -71 480 -3 0 38 -20 58 -71 73 -75 23 -341 56 -463
59 -58 1 -106 3 -106 4 0 1 39 28 87 60 49 32 139 108 201 169 63 61 115 106
117 100 2 -6 6 -31 10 -56 18 -141 159 -287 321 -334 21 -6 21 -6 8 51 -25
109 -43 353 -26 353 4 -1 22 -33 40 -73 44 -96 117 -185 193 -236 34 -23 63
-40 65 -38 2 2 -10 38 -26 81 -55 141 -97 334 -85 388 7 32 8 32 31 -31 63
-166 151 -290 259 -363 38 -25 71 -45 73 -44 1 2 -17 52 -41 112 -77 188 -125
369 -116 434 11 72 240 -385 274 -547 6 -28 4 -33 -17 -37 -13 -2 -103 -17
-201 -34 -98 -16 -184 -35 -192 -42 -22 -18 -18 -64 6 -86 30 -26 137 -23 304
10 71 14 132 22 136 18 4 -4 9 -29 10 -57 l3 -50 -55 -6 c-110 -12 -227 -88
-284 -184 -29 -50 -30 -55 -12 -55 7 0 21 -15 30 -32 l16 -33 0 30 c2 61 74
143 161 184 48 23 68 26 155 25 85 0 110 -4 165 -27 74 -31 177 -103 186 -130
4 -12 -6 -38 -25 -69 -18 -28 -30 -52 -28 -55 2 -2 30 28 61 66 32 38 62 71
68 73 20 7 -113 107 -196 149 -43 21 -96 42 -117 45 -22 4 -39 8 -39 9 0 9
161 167 165 163 3 -3 12 -30 20 -62 40 -155 155 -292 306 -365 47 -22 93 -41
103 -41 26 0 29 -25 11 -82 -18 -54 -123 -272 -171 -354 l-27 -46 24 7 c79 22
158 72 231 146 44 45 89 81 105 85 68 16 149 76 213 157 l40 50 0 -57 c0 -30
-8 -78 -18 -104 -23 -58 -97 -175 -147 -231 -20 -22 -66 -89 -101 -148 -102
-173 -114 -185 -186 -185 l-43 0 -35 -96 c-83 -238 -270 -530 -488 -763 l-59
-64 -7 -105 c-4 -57 -9 -107 -12 -111 -2 -4 0 -29 6 -56 5 -26 17 -101 25
-166 l16 -119 -52 -91 c-85 -151 -161 -247 -304 -386 l-137 -131 1181 0 1181
0 0 2560 0 2560 -732 0 -733 -1 35 -30 c19 -17 27 -28 17 -25 -9 3 -59 13
-110 22 -193 34 -400 -10 -522 -111 -19 -16 -19 -16 -1 -10 89 28 360 73 471
77 l69 3 24 -43 c63 -113 174 -172 432 -230 l85 -19 -55 -7 c-113 -15 -341 37
-479 110 -82 43 -100 44 -36 1 28 -18 75 -52 105 -75 64 -49 151 -79 254 -88
88 -8 111 -20 169 -84 92 -102 161 -283 191 -498 13 -87 13 -128 2 -91 -49
165 -112 274 -182 315 -39 23 -53 26 -114 22 -38 -2 -75 -9 -81 -15 -10 -10
-4 -11 23 -7 38 7 92 -20 135 -68 35 -38 88 -162 133 -313 77 -260 169 -391
363 -522 l52 -35 -65 6 c-132 13 -254 97 -430 296 -51 58 -104 116 -118 130
l-25 25 20 -35 c37 -63 135 -224 149 -245 31 -44 121 -128 158 -147 l39 -20
-6 -117 c-8 -140 -37 -315 -66 -392 -46 -121 -119 -208 -219 -258 l-44 -22 30
43 c42 61 87 154 106 216 21 72 30 211 21 308 l-8 79 -18 -94 c-41 -215 -119
-378 -278 -581 -91 -116 -96 -121 -66 -70 96 165 136 275 138 375 2 79 -11
110 -75 187 l-39 47 -18 173 c-14 139 -20 165 -26 135 -17 -87 9 -342 50 -481
8 -27 13 -51 11 -53 -5 -5 -110 116 -181 207 -65 84 -107 168 -124 250 -7 30
-16 138 -21 240 -9 177 -11 188 -42 262 -34 81 -109 192 -140 209 -14 8 -12
-3 13 -62 55 -128 72 -211 72 -349 1 -110 -3 -139 -32 -245 l-32 -120 -76 -75
c-41 -41 -72 -66 -68 -55 60 152 36 396 -56 583 -48 99 -133 191 -208 225 -75
35 -81 43 -82 101 -1 28 -4 62 -8 76 -15 48 -25 -208 -12 -298 12 -82 56 -223
92 -294 11 -21 18 -38 16 -38 -7 0 -95 137 -122 191 -61 119 -107 278 -121
413 -4 36 -10 66 -13 66 -16 0 -75 -275 -75 -349 0 -81 32 -212 79 -316 13
-30 23 -55 21 -55 -2 0 -19 24 -39 53 -93 141 -153 312 -178 508 -7 57 -6 96
5 159 13 74 14 103 2 89 -9 -11 -66 -263 -76 -332 -17 -132 -12 -359 10 -467
11 -52 20 -97 20 -100 0 -10 -82 87 -122 144 -86 123 -118 285 -99 491 7 69
15 134 17 143 4 11 -1 8 -14 -7 -11 -13 -37 -72 -58 -130 -45 -122 -84 -178
-224 -325 -97 -102 -335 -316 -351 -316 -5 0 16 37 45 83 124 191 189 365 201
540 l5 72 -19 -75 c-47 -192 -49 -196 -111 -234 -70 -43 -177 -149 -229 -224
-107 -159 -162 -335 -177 -571 -7 -106 -8 -112 -21 -87 -35 66 -55 180 -55
306 0 183 58 458 102 485 5 3 10 11 10 17 0 7 -13 -1 -29 -17 -41 -38 -93
-147 -137 -285 -34 -105 -37 -126 -38 -235 -1 -103 2 -127 20 -166 12 -25 28
-86 35 -135 23 -152 15 -496 -11 -468 -4 5 -19 54 -34 109 -25 99 -47 270 -62
490 -7 95 -9 104 -15 65 -24 -146 0 -452 45 -595 14 -44 24 -80 23 -82 -9 -8
-113 223 -146 322 -58 178 -75 289 -75 495 -1 96 3 185 7 198 5 13 4 22 -1 22
-11 0 -57 -122 -78 -207 -8 -32 -17 -113 -21 -180 l-6 -123 -24 53 c-37 77
-72 200 -89 307 -14 91 -20 336 -10 403 29 192 27 187 70 229 23 22 62 51 88
66 27 15 48 30 48 33 0 12 -116 -12 -158 -32 -74 -36 -131 -130 -152 -249 l-8
-45 -1 60 c-2 136 48 303 133 437 50 79 52 81 116 103 36 12 85 32 109 45 66
33 214 130 209 136 -3 2 -34 -12 -69 -32 -87 -49 -216 -105 -319 -138 -137
-44 -140 -45 -140 -42 0 2 32 23 71 46 183 108 406 306 486 430 23 36 48 73
55 83 9 13 45 25 121 39 107 21 107 22 75 35 -120 51 -273 12 -417 -105 l-45
-36 20 34 c35 64 214 235 313 299 l93 61 -716 0 -716 0 0 -2560z m1790 1193
c0 -13 -148 -303 -171 -334 -11 -16 -25 -29 -30 -29 -6 0 -38 -14 -71 -30 -34
-17 -63 -29 -65 -26 -6 6 43 110 80 168 44 69 114 148 186 210 54 46 71 56 71
41z m2100 -763 c17 -33 30 -123 16 -109 -7 7 -45 149 -41 149 3 0 14 -18 25
-40z m-2540 -230 c1 -19 5 -54 9 -77 l8 -42 -27 19 c-42 30 -56 59 -64 128 -4
35 -10 71 -13 80 -3 9 15 -3 41 -28 37 -36 46 -51 46 -80z"/>
<path d="M2095 5110 c3 -5 11 -10 16 -10 6 0 7 5 4 10 -3 6 -11 10 -16 10 -6
0 -7 -4 -4 -10z"/>
<path d="M2804 5089 c-16 -17 -51 -46 -79 -65 -61 -42 -48 -44 20 -5 58 34
127 101 104 101 -8 0 -28 -14 -45 -31z"/>
<path d="M2405 5070 c-33 -4 -76 -14 -95 -22 -35 -15 -90 -70 -90 -89 0 -5 22
-9 49 -9 63 0 163 -31 225 -70 26 -17 50 -29 52 -27 8 8 -39 59 -75 81 -52 33
-100 47 -167 47 l-59 1 29 23 c34 27 126 55 180 55 22 0 35 4 31 10 -3 6 -9 9
-13 9 -4 -1 -34 -5 -67 -9z"/>
<path d="M1783 5015 c-189 -59 -333 -287 -358 -569 -4 -42 -4 -76 0 -76 3 0
37 27 73 60 144 130 373 272 547 340 129 50 129 50 12 44 -302 -14 -472 -114
-578 -339 -24 -51 -27 -55 -23 -25 37 233 163 456 297 527 17 9 61 25 97 34
l65 17 -45 0 c-25 1 -64 -5 -87 -13z"/>
<path d="M2797 4805 c-12 -69 -8 -208 8 -270 29 -110 108 -225 200 -293 l30
-23 -40 16 c-123 49 -272 154 -430 305 -116 111 -118 110 -17 -12 118 -145
249 -250 389 -315 72 -33 222 -78 231 -68 2 2 -22 35 -55 72 -107 122 -190
248 -237 361 -23 55 -41 117 -65 232 l-7 35 -7 -40z"/>
<path d="M3200 4787 c0 -2 53 -34 117 -73 143 -84 261 -195 318 -297 36 -65
125 -281 125 -302 0 -5 -22 26 -48 71 -118 203 -216 275 -389 287 -69 5 -59
-7 19 -23 34 -6 83 -21 108 -33 91 -43 205 -187 302 -384 28 -57 53 -103 56
-103 12 0 -9 252 -28 330 -63 258 -228 455 -427 509 -68 18 -153 28 -153 18z"/>
<path d="M2040 4553 c-85 -161 -256 -371 -393 -485 l-52 -43 31 40 c52 66 91
155 133 301 47 169 52 189 42 178 -5 -5 -35 -81 -66 -169 -69 -192 -86 -226
-164 -330 -34 -44 -61 -83 -61 -87 0 -10 81 26 153 68 121 71 227 166 297 268
42 62 89 159 94 194 2 15 7 46 11 70 4 23 6 42 4 42 -2 0 -15 -21 -29 -47z"/>
<path d="M1326 4209 c-2 -8 -12 -39 -22 -69 -58 -186 -195 -350 -363 -433 -73
-36 -81 -43 -60 -48 121 -34 321 35 416 144 29 34 88 145 81 153 -2 1 -28 -26
-57 -62 -63 -76 -155 -139 -265 -183 -43 -17 -81 -31 -84 -31 -3 0 28 23 70
50 147 96 252 249 283 411 7 41 12 76 10 78 -3 2 -7 -2 -9 -10z"/>
<path d="M3680 3915 c-1 -11 -2 -57 -2 -102 1 -122 47 -211 142 -273 43 -28
229 -94 238 -85 6 6 -65 182 -94 232 -32 55 -51 67 -25 15 11 -22 34 -77 50
-122 l30 -81 -50 28 c-72 38 -172 134 -214 203 -19 32 -44 91 -55 132 -10 40
-20 64 -20 53z"/>
<path d="M1850 3158 c-104 -13 -227 -72 -330 -158 l-48 -40 26 -28 c15 -15 44
-49 66 -76 21 -26 40 -45 43 -43 2 3 -10 28 -27 56 -19 30 -29 58 -26 68 9 27
112 99 186 130 55 23 80 27 165 27 82 1 108 -3 147 -21 96 -44 167 -124 169
-189 l0 -29 16 33 c9 17 23 32 30 32 19 0 16 11 -15 61 -84 131 -236 198 -402
177z"/>
<path d="M1832 3060 c-129 -79 -73 -280 79 -280 64 0 134 63 145 131 8 50 -25
122 -68 149 -43 26 -113 26 -156 0z m176 -30 c25 -24 29 -65 6 -74 -8 -3 -13
-2 -10 3 7 10 -22 24 -34 16 -4 -3 -11 2 -14 11 -3 8 -2 12 4 9 6 -4 7 1 3 11
-6 15 -7 16 -18 0 -10 -14 -12 -12 -11 14 1 25 5 30 27 30 14 0 35 -9 47 -20z
m-150 -59 c-13 -18 -17 -19 -27 -7 -9 11 -8 14 6 12 12 -1 17 5 16 18 -1 12 2
15 9 8 7 -7 6 -17 -4 -31z m113 -98 c13 -16 12 -17 -3 -4 -10 7 -18 15 -18 17
0 8 8 3 21 -13z m-104 -11 c-10 -10 -17 -24 -17 -30 0 -15 -26 -16 -35 -2 -3
6 -3 15 1 21 5 8 9 7 14 -1 6 -10 12 -7 21 9 8 11 18 21 23 21 5 0 2 -8 -7
-18z m38 -1 c3 -5 1 -12 -5 -16 -5 -3 -10 1 -10 9 0 18 6 21 15 7z m35 -1 c0
-5 -2 -10 -4 -10 -3 0 -8 5 -11 10 -3 6 -1 10 4 10 6 0 11 -4 11 -10z"/>
<path d="M3140 3062 c-47 -23 -83 -92 -76 -146 16 -133 191 -181 269 -74 11
14 22 49 25 76 11 121 -107 200 -218 144z m179 -38 c24 -30 26 -45 10 -61 -9
-9 -16 -8 -27 3 -8 8 -21 13 -30 9 -13 -5 -13 -3 -1 12 9 11 10 14 2 9 -8 -4
-13 -2 -13 5 0 8 -4 8 -15 -1 -14 -11 -14 -10 -6 13 7 18 7 27 -2 31 -7 2 5 5
25 5 28 1 41 -5 57 -25z m-24 -82 c-3 -3 -11 0 -18 7 -9 10 -8 11 6 5 10 -3
15 -9 12 -12z m-135 -46 c0 -2 -7 -7 -16 -10 -8 -3 -12 -2 -9 4 6 10 25 14 25
6z m8 -38 c-7 -13 -12 -26 -13 -30 0 -5 -3 -8 -7 -8 -5 0 -12 0 -18 0 -5 0
-10 10 -10 21 0 17 3 19 14 10 12 -10 17 -8 26 8 6 12 13 21 16 21 2 0 -1 -10
-8 -22z m39 -10 c-3 -8 -6 -5 -6 6 -1 11 2 17 5 13 3 -3 4 -12 1 -19z"/>
<path d="M832 2770 c0 -14 2 -19 5 -12 2 6 2 18 0 25 -3 6 -5 1 -5 -13z"/>
<path d="M1900 2760 l-75 -6 80 -2 c44 0 98 3 120 7 l40 9 -45 -1 c-25 0 -79
-3 -120 -7z"/>
<path d="M3085 2760 c39 -9 203 -14 194 -6 -2 2 -56 6 -119 9 -76 4 -101 2
-75 -3z"/>
<path d="M4271 2744 c0 -11 3 -14 6 -6 3 7 2 16 -1 19 -3 4 -6 -2 -5 -13z"/>
<path d="M4074 2428 l-19 -23 23 19 c12 11 22 21 22 23 0 8 -8 2 -26 -19z"/>
<path d="M4099 2423 c-13 -16 -12 -17 4 -4 9 7 17 15 17 17 0 8 -8 3 -21 -13z"/>
<path d="M1080 2378 c41 -45 50 -53 50 -45 0 2 -21 23 -47 47 l-48 45 45 -47z"/>
<path d="M2472 2300 c0 -14 2 -19 5 -12 2 6 2 18 0 25 -3 6 -5 1 -5 -13z"/>
<path d="M2461 2234 c0 -11 3 -14 6 -6 3 7 2 16 -1 19 -3 4 -6 -2 -5 -13z"/>
</g>
</svg>
